<svg width="16" height="16" viewBox="0 0 16 16" fill="none" xmlns="http://www.w3.org/2000/svg">
<path d="M5.51987 1.66697C5.93987 1.67975 6.34654 1.75308 6.74054 1.88708H6.77987C6.80654 1.89975 6.82654 1.91375 6.83987 1.92641C6.9872 1.97375 7.12654 2.02708 7.25987 2.10041L7.5132 2.21375C7.6132 2.26708 7.7332 2.36641 7.79987 2.40708C7.86654 2.44641 7.93987 2.48708 7.99987 2.53308C8.74054 1.96708 9.63987 1.66041 10.5665 1.66697C10.9872 1.66697 11.4072 1.72641 11.8065 1.86041C14.2672 2.66041 15.1539 5.36041 14.4132 7.72041C13.9932 8.92641 13.3065 10.0271 12.4072 10.9264C11.1199 12.1731 9.7072 13.2797 8.18654 14.2331L8.01987 14.3337L7.84654 14.2264C6.32054 13.2797 4.89987 12.1731 3.60054 10.9197C2.7072 10.0204 2.01987 8.92641 1.5932 7.72041C0.839869 5.36041 1.72654 2.66041 4.21387 1.84641C4.4072 1.77975 4.60654 1.73308 4.80654 1.70708H4.88654C5.07387 1.67975 5.25987 1.66697 5.44654 1.66697H5.51987ZM11.4599 3.77375C11.1865 3.67975 10.8865 3.82708 10.7865 4.10708C10.6932 4.38708 10.8399 4.69375 11.1199 4.79308C11.5472 4.95308 11.8332 5.37375 11.8332 5.83975V5.86041C11.8205 6.01308 11.8665 6.16041 11.9599 6.27375C12.0532 6.38708 12.1932 6.45308 12.3399 6.46708C12.6132 6.45975 12.8465 6.24041 12.8665 5.95975V5.88041C12.8865 4.94641 12.3205 4.10041 11.4599 3.77375Z" fill="#E5524A"/>
</svg>
