<svg width="22" height="22" viewBox="0 0 22 22" fill="none" xmlns="http://www.w3.org/2000/svg">
<g opacity="0.25">
<path d="M10.535 1.83333C12.8107 1.83333 14.6666 3.6575 14.6666 5.90333V10.2942H9.07072C8.66967 10.2942 8.35257 10.6058 8.35257 11C8.35257 11.385 8.66967 11.7058 9.07072 11.7058H14.6666V16.0875C14.6666 18.3333 12.8107 20.1667 10.5163 20.1667H5.9743C3.6893 20.1667 1.83331 18.3425 1.83331 16.0967V5.9125C1.83331 3.6575 3.69862 1.83333 5.98363 1.83333H10.535ZM16.9952 7.83768C17.2702 7.55352 17.7193 7.55352 17.9943 7.82852L20.671 10.496C20.8085 10.6335 20.8818 10.8077 20.8818 11.0002C20.8818 11.1835 20.8085 11.3668 20.671 11.4952L17.9943 14.1627C17.8568 14.3002 17.6735 14.3735 17.4993 14.3735C17.316 14.3735 17.1327 14.3002 16.9952 14.1627C16.7202 13.8877 16.7202 13.4385 16.9952 13.1635L18.4618 11.706H14.6668V10.2943H18.4618L16.9952 8.83685C16.7202 8.56185 16.7202 8.11268 16.9952 7.83768Z" fill="#EFEEE0"/>
</g>
</svg>
