<svg width="22" height="22" viewBox="0 0 22 22" fill="none" xmlns="http://www.w3.org/2000/svg">
<g opacity="0.25">
<path d="M11 1.83333C8.59831 1.83333 6.64581 3.78583 6.64581 6.1875C6.64581 8.54333 8.48831 10.45 10.89 10.5325C10.9633 10.5233 11.0366 10.5233 11.0916 10.5325C11.11 10.5325 11.1191 10.5325 11.1375 10.5325C11.1466 10.5325 11.1466 10.5325 11.1558 10.5325C13.5025 10.45 15.345 8.54333 15.3541 6.1875C15.3541 3.78583 13.4016 1.83333 11 1.83333Z" fill="#EFEEE0"/>
<path d="M15.6567 12.9708C13.0992 11.2658 8.92836 11.2658 6.35253 12.9708C5.18836 13.75 4.54669 14.8042 4.54669 15.9317C4.54669 17.0592 5.18836 18.1042 6.34336 18.8742C7.62669 19.7358 9.31336 20.1667 11 20.1667C12.6867 20.1667 14.3734 19.7358 15.6567 18.8742C16.8117 18.095 17.4534 17.05 17.4534 15.9133C17.4442 14.7858 16.8117 13.7408 15.6567 12.9708Z" fill="#EFEEE0"/>
</g>
</svg>
